<?xml version="1.0" standalone="no"?><!DOCTYPE svg PUBLIC "-//W3C//DTD SVG 1.1//EN" "http://www.w3.org/Graphics/SVG/1.1/DTD/svg11.dtd"><svg t="1747539934402" class="icon" viewBox="0 0 1024 1024" version="1.1" xmlns="http://www.w3.org/2000/svg" p-id="5921" xmlns:xlink="http://www.w3.org/1999/xlink" width="200" height="200"><path d="M988.24192 222.717074a40.38656 40.38656 0 0 0-15.89248-30.72c-32.44032-28.800731-87.853349-77.437806-105.02144-94.079268a32.943543 32.943543 0 0 0-45.840091 0 29.701851 29.701851 0 0 0 0 42.879268c14.640274 13.43488 47.747657 40.96 63.640137 64.002926-15.89248 19.204389-41.346194 39.040731-57.273783 56.314149a7.735589 7.735589 0 0 0 0 5.757805v21.065143c0 3.838537 4.447086 5.125851 6.366354 5.125852h81.475292a7.021714 7.021714 0 0 1 7.021714 5.757805v518.436572c0 28.800731-15.89248 37.753417-32.44032 37.753417a33.002057 33.002057 0 0 1-25.582446-11.000686 33.42336 33.42336 0 0 1-8.192-26.752731V392.958537c0-38.397074-4.447086-55.682194-48.367908-58.233417h-74.453578V64.002926A63.862491 63.862491 0 0 0 670.041234 0H160.791406a63.827383 63.827383 0 0 0-63.640137 64.002926v866.561463H60.310674a26.670811 26.670811 0 0 0-19.894857 8.742034 26.975086 26.975086 0 0 0-6.857874 20.690651v39.040732A28.086857 28.086857 0 0 0 60.310674 1024h709.59104c14.593463-0.503223 26.29632-12.545463 26.752732-27.513417v-36.489509c-0.49152-14.722194-12.334811-26.366537-26.70592-26.237805h-36.278857V396.797074h45.173028a17.226606 17.226606 0 0 1 17.179794 15.997806v407.680731a95.085714 95.085714 0 0 0 24.576 74.664229 94.055863 94.055863 0 0 0 72.206629 30.298697 90.112 90.112 0 0 0 72.33536-28.929463 91.17696 91.17696 0 0 0 23.124846-74.757851V222.717074M616.594286 383.994149a43.616549 43.616549 0 0 1-13.1072 30.591268 43.148434 43.148434 0 0 1-30.778515 12.288h-318.317714c-22.680137-0.807497-40.807863-19.613989-41.346194-42.879268V158.725851c0.57344-24.025966 19.836343-43.125029 43.300571-42.879268h318.188983a43.206949 43.206949 0 0 1 30.778514 12.288 43.66336 43.66336 0 0 1 13.142309 30.591268v225.28" p-id="5922"></path></svg>