<?xml version="1.0" standalone="no"?><!DOCTYPE svg PUBLIC "-//W3C//DTD SVG 1.1//EN" "http://www.w3.org/Graphics/SVG/1.1/DTD/svg11.dtd"><svg t="1747540045837" class="icon" viewBox="0 0 1024 1024" version="1.1" xmlns="http://www.w3.org/2000/svg" p-id="7945" xmlns:xlink="http://www.w3.org/1999/xlink" width="200" height="200"><path d="M874.901333 645.013333l105.301334 103.722667c57.728 56.853333 57.856 151.786667 0.384 208.832-57.6 59.285333-153.770667 59.285333-211.370667 0-57.472-57.045333-57.344-151.978667 0.384-208.853333L874.901333 645.034667z m0 117.973334l-46.293333 45.632c-24.448 24.064-24.448 65.365333 0 89.450666l0.362667 0.362667 0.384 0.405333c24.618667 25.514667 66.474667 25.514667 91.093333 0l0.384-0.405333 0.384-0.362667c24.426667-24.085333 24.426667-65.386667 0-89.472L874.901333 763.008zM414.229333 222.122667L121.408 515.797333c-47.786667 47.914667-47.786667 127.189333 0 175.104l147.456 147.882667c47.701333 47.850667 126.528 47.850667 174.250667 0l294.912-295.765333 60.416 60.266666-294.912 295.744c-81.066667 81.28-214.037333 81.28-295.104 0l-147.456-147.861333c-80.981333-81.237333-80.981333-214.4 0-295.616L353.813333 161.877333l60.416 60.245334z" fill="#0A0A0A" p-id="7946"></path><path d="M802.069333 670.165333l-512-512 60.330667-60.330666 512 512-60.330667 60.330666z" fill="#0A0A0A" p-id="7947"></path></svg>